<svg xmlns="http://www.w3.org/2000/svg" viewBox="0 0 414 666"><defs><style>.cls-2,.cls-3,.cls-4,.cls-5{fill:#fff;isolation:isolate}.cls-2{opacity:.7}.cls-3{opacity:.5}.cls-4{opacity:.3}.cls-5{opacity:.2}</style></defs><g id="Capa_2" data-name="Capa 2"><g id="Layer_1" data-name="Layer 1"><g id="Groupe_878" data-name="Groupe 878"><path id="Tracé_883" data-name="Tracé 883" d="M0 0h414v666H0z" fill="#ddedff"/><path id="Tracé_867" data-name="Tracé 867" class="cls-2" d="M411.91 602c-.82-.07-1.63.94-2.15 2.49a9.14 9.14 0 01-2.86 0c-.66-.1-1.42-.18-2.25-.23a40.86 40.86 0 00-1.14-10.4c.82-.24 1.58-.48 2.22-.71a9.25 9.25 0 012.8-.62c.82 1.42 1.82 2.24 2.61 2 1.18-.35 1.45-2.91.6-5.71s-2.48-4.79-3.65-4.44c-.79.24-1.17 1.48-1.08 3.11a9.19 9.19 0 01-2.68 1c-.66.16-1.44.37-2.27.64a40.35 40.35 0 00-5.6-10.22c.7-.57 1.32-1.1 1.83-1.59a9.16 9.16 0 012.33-1.68c1.32 1 2.56 1.33 3.19.8.94-.79.17-3.24-1.71-5.48s-4.17-3.42-5.11-2.63c-.63.53-.49 1.82.24 3.29a9.05 9.05 0 01-2.05 2c-.57.42-1.22 1-1.9 1.55a40.07 40.07 0 00-8.12-6.49c.47-.82.87-1.59 1.18-2.25a8.89 8.89 0 011.54-2.42c1.59.42 2.87.3 3.27-.43.58-1.08-1-3.08-3.62-4.47s-5.13-1.64-5.72-.55c-.39.72.22 1.86 1.44 3a9.07 9.07 0 01-1.17 2.62c-.39.63-.82 1.4-1.25 2.26a39.9 39.9 0 00-11.11-3.22c.11-1 .17-1.9.2-2.67a9 9 0 01.45-2.83c1.62-.25 2.76-.87 2.83-1.69.1-1.23-2.17-2.42-5.09-2.67s-5.36.53-5.47 1.76c-.07.82.94 1.63 2.49 2.14a9.21 9.21 0 010 2.87c-.11.77-.2 1.7-.26 2.71A41 41 0 00354.6 564c-.28-1-.56-1.93-.84-2.68a9.31 9.31 0 01-.62-2.8c1.42-.83 2.24-1.82 2-2.61-.35-1.18-2.91-1.45-5.71-.61s-4.79 2.48-4.44 3.65c.24.79 1.48 1.17 3.12 1.08a9.17 9.17 0 011 2.68c.19.79.46 1.72.79 2.72a41 41 0 00-10.09 5.5c-.66-.84-1.3-1.59-1.87-2.19a9.35 9.35 0 01-1.68-2.32c1-1.32 1.34-2.56.8-3.2-.79-.93-3.24-.17-5.48 1.71s-3.42 4.18-2.63 5.12c.54.63 1.82.48 3.29-.25a9.48 9.48 0 012 2.05c.49.66 1.12 1.43 1.84 2.23a39.93 39.93 0 00-6.46 8c-.94-.54-1.82-1-2.57-1.36a9 9 0 01-2.42-1.54c.42-1.58.3-2.87-.43-3.26-1.08-.58-3.08 1-4.47 3.61s-1.63 5.14-.55 5.72c.72.39 1.87-.22 3-1.44a9.07 9.07 0 012.62 1.17c.7.43 1.58.91 2.55 1.4a39.74 39.74 0 00-3.3 11c-1.07-.13-2.06-.2-2.88-.23a9.36 9.36 0 01-2.83-.45c-.25-1.62-.87-2.76-1.69-2.83-1.23-.1-2.42 2.17-2.67 5.09s.54 5.36 1.76 5.47c.82.07 1.63-.94 2.15-2.5a9.14 9.14 0 012.86 0c.82.12 1.8.21 2.87.27a40.37 40.37 0 001 10.22c-1 .28-1.95.57-2.71.84a9.38 9.38 0 01-2.8.62c-.83-1.41-1.83-2.24-2.62-2-1.17.35-1.44 2.91-.6 5.71s2.48 4.79 3.65 4.44c.79-.24 1.17-1.47 1.08-3.11a9 9 0 012.68-1c.78-.19 1.71-.46 2.7-.79a40.5 40.5 0 004.22 8.49c-1.2 1.07-2 2.84.31 2.4-.44.37-.84.73-1.2 1.06a8.94 8.94 0 01-2.32 1.68c-1.32-1-2.56-1.33-3.2-.8-.93.79-.17 3.25 1.72 5.49s4.17 3.41 5.11 2.62c.63-.53.49-1.82-.25-3.28a9.26 9.26 0 012.05-2c.62-.46 1.32-1 2.07-1.7a39.78 39.78 0 008 6.59c-.48.84-.89 1.62-1.2 2.3a9.28 9.28 0 01-1.55 2.41c-1.58-.41-2.87-.3-3.26.43-.58 1.08 1 3.09 3.61 4.47s5.14 1.64 5.72.56c.39-.73-.21-1.87-1.43-3a9.16 9.16 0 011.17-2.61c.39-.63.81-1.39 1.24-2.22a40.76 40.76 0 0011.11 3.41c-.1.9-.16 1.73-.18 2.44a9.41 9.41 0 01-.45 2.83c-1.63.24-2.76.86-2.83 1.69-.1 1.22 2.17 2.41 5.09 2.67s5.36-.54 5.47-1.76c.07-.83-.94-1.63-2.49-2.15a9.21 9.21 0 010-2.87c.1-.69.18-1.51.24-2.4a40.7 40.7 0 0010.38-1c.24.84.48 1.6.72 2.25a8.94 8.94 0 01.61 2.8c-1.41.82-2.24 1.82-2 2.61.36 1.18 2.92 1.45 5.72.61s4.79-2.48 4.43-3.65c-.23-.8-1.47-1.17-3.11-1.08a9.28 9.28 0 01-1-2.68c-.16-.66-.37-1.42-.63-2.24a40.74 40.74 0 0010.31-5.5c.53.64 1 1.22 1.49 1.7a9.35 9.35 0 011.68 2.32c-1 1.32-1.34 2.57-.8 3.2.79.94 3.24.17 5.48-1.71s3.41-4.17 2.62-5.11c-.53-.64-1.81-.49-3.28.24a9.26 9.26 0 01-2-2c-.39-.52-.87-1.11-1.41-1.74a40.08 40.08 0 006.62-8.12c.72.4 1.39.74 2 1a9 9 0 012.42 1.54c-.42 1.58-.3 2.87.43 3.26 1.08.59 3.08-1 4.47-3.61s1.63-5.13.55-5.72c-.73-.39-1.87.22-3 1.44a9.07 9.07 0 01-2.62-1.17c-.55-.34-1.21-.71-1.94-1.09.39-.83.75-1.67 1.07-2.52l2.7.87a1.12 1.12 0 001.4-.73l.41-1.3a1.11 1.11 0 00-.72-1.4l-2.66-.85a38.31 38.31 0 001.13-5.29c.82.08 1.58.13 2.24.15a9.11 9.11 0 012.83.46c.24 1.62.86 2.75 1.69 2.82 1.22.11 2.41-2.17 2.66-5.08s-.53-5.42-1.75-5.56zm-19.56 16.53a32.06 32.06 0 11-13-43.43 32.09 32.09 0 0113 43.42z"/><path id="Tracé_868" data-name="Tracé 868" class="cls-3" d="M217.38 131.78c-.71-.06-1.41.82-1.86 2.16a7.94 7.94 0 01-2.48 0c-.57-.08-1.23-.15-1.95-.2a35 35 0 00-1-9c.72-.2 1.37-.41 1.93-.61a8 8 0 012.42-.53c.71 1.22 1.58 1.94 2.26 1.73 1-.3 1.26-2.52.53-5s-2.15-4.14-3.16-3.84c-.69.21-1 1.28-.94 2.7a8 8 0 01-2.32.88c-.57.14-1.24.33-2 .56a35.13 35.13 0 00-4.81-8.83c.6-.49 1.14-1 1.58-1.38a7.63 7.63 0 012-1.45c1.14.84 2.22 1.15 2.76.69.82-.68.15-2.81-1.48-4.75s-3.61-3-4.43-2.27c-.54.46-.42 1.58.21 2.85a7.86 7.86 0 01-1.77 1.73c-.49.37-1.06.83-1.65 1.34a35 35 0 00-7-5.61c.4-.71.75-1.38 1-2a7.89 7.89 0 011.33-2.09c1.38.36 2.49.26 2.83-.37.5-.94-.9-2.67-3.13-3.87s-4.45-1.42-5-.48c-.34.63.19 1.62 1.24 2.56a7.58 7.58 0 01-1 2.27c-.34.55-.71 1.22-1.08 2a34.78 34.78 0 00-9.63-2.79c.1-.86.16-1.65.17-2.32a8.16 8.16 0 01.4-2.45c1.4-.21 2.39-.75 2.45-1.46.09-1.06-1.88-2.09-4.41-2.31s-4.64.46-4.73 1.52c-.06.71.81 1.41 2.16 1.86a7.93 7.93 0 010 2.48c-.1.67-.18 1.48-.23 2.35a35.87 35.87 0 00-8.87 1c-.23-.87-.48-1.67-.72-2.32a8.47 8.47 0 01-.54-2.43c1.23-.71 1.94-1.58 1.74-2.26-.31-1-2.52-1.25-4.95-.52s-4.15 2.14-3.84 3.16c.2.68 1.28 1 2.69.93a7.7 7.7 0 01.89 2.32c.16.68.4 1.49.69 2.36a35.29 35.29 0 00-8.74 4.76c-.58-.73-1.13-1.38-1.62-1.9a8 8 0 01-1.46-2c.85-1.14 1.16-2.22.7-2.76-.69-.82-2.81-.15-4.75 1.48s-3 3.61-2.27 4.42c.46.55 1.57.43 2.84-.21a7.9 7.9 0 011.73 1.78c.43.57 1 1.23 1.6 1.93a35.11 35.11 0 00-5.6 6.9c-.81-.47-1.57-.88-2.22-1.18a8 8 0 01-2.1-1.33c.37-1.38.26-2.49-.37-2.83-.94-.5-2.67.9-3.87 3.13s-1.41 4.44-.48 4.95c.63.34 1.62-.19 2.57-1.25a7.81 7.81 0 012.26 1c.61.37 1.37.79 2.21 1.21a35.16 35.16 0 00-2.86 9.51c-.92-.1-1.78-.17-2.49-.19a7.86 7.86 0 01-2.45-.4c-.21-1.4-.75-2.38-1.47-2.44-1.05-.09-2.09 1.88-2.31 4.4s.47 4.65 1.53 4.74c.71.06 1.41-.81 1.86-2.16a7.94 7.94 0 012.48 0c.7.1 1.55.18 2.48.23a35.64 35.64 0 00.88 8.86 23.85 23.85 0 00-2.35.73 8 8 0 01-2.41.53c-.71-1.23-1.58-1.94-2.26-1.73-1 .3-1.26 2.52-.53 4.94s2.15 4.15 3.17 3.85c.68-.21 1-1.28.93-2.7a8.26 8.26 0 012.32-.89c.67-.16 1.48-.39 2.34-.67a35.47 35.47 0 003.65 7.35c-1 .92-1.73 2.46.27 2.08-.38.32-.73.63-1 .92a8.11 8.11 0 01-2 1.45c-1.14-.84-2.21-1.16-2.76-.7-.81.69-.15 2.81 1.48 4.75s3.61 3 4.43 2.28c.54-.46.42-1.58-.21-2.85a7.86 7.86 0 011.77-1.73c.53-.4 1.14-.9 1.79-1.47a35.07 35.07 0 006.91 5.71c-.41.72-.77 1.4-1 2a8.06 8.06 0 01-1.33 2.09c-1.38-.37-2.49-.26-2.83.37-.5.94.9 2.67 3.13 3.87s4.45 1.42 5 .48c.34-.63-.19-1.62-1.24-2.56a7.58 7.58 0 011-2.27c.33-.54.7-1.2 1.07-1.93a34.74 34.74 0 009.62 3c-.09.78-.14 1.5-.16 2.11a7.53 7.53 0 01-.4 2.45c-1.4.22-2.38.76-2.44 1.47-.09 1.06 1.88 2.09 4.4 2.31s4.65-.47 4.74-1.53c.06-.71-.81-1.41-2.16-1.86a7.94 7.94 0 010-2.48c.09-.6.16-1.31.21-2.08a34.83 34.83 0 009-.88c.2.73.42 1.39.62 2a8.07 8.07 0 01.53 2.42c-1.22.72-1.94 1.58-1.73 2.27.31 1 2.52 1.25 4.95.52s4.15-2.14 3.84-3.16c-.2-.69-1.28-1-2.69-.94a7.74 7.74 0 01-.89-2.31c-.14-.57-.32-1.23-.55-1.94a35.41 35.41 0 008.94-4.76c.45.55.89 1.06 1.28 1.47a7.74 7.74 0 011.45 2c-.84 1.15-1.15 2.22-.69 2.77.68.81 2.81.15 4.75-1.48s3-3.61 2.27-4.43c-.46-.54-1.57-.42-2.84.21a7.69 7.69 0 01-1.74-1.77c-.34-.45-.75-1-1.22-1.5a35 35 0 005.74-7c.62.35 1.2.65 1.71.88a8.19 8.19 0 012.09 1.34c-.36 1.37-.25 2.49.38 2.83.93.5 2.66-.9 3.86-3.13s1.42-4.45.48-5c-.62-.34-1.61.18-2.56 1.24a8.25 8.25 0 01-2.27-1c-.48-.3-1.05-.62-1.68-.94q.51-1.08.93-2.19l2.33.75a1 1 0 001.22-.62l.36-1.13a1 1 0 00-.62-1.21l-2.3-.74a36 36 0 001-4.59c.71.07 1.37.12 1.94.14a7.58 7.58 0 012.45.4c.21 1.39.75 2.38 1.46 2.44 1.06.09 2.1-1.88 2.31-4.4s-.58-4.72-1.64-4.81zm-16.94 14.32a27.76 27.76 0 11-11.29-37.61 27.78 27.78 0 0111.29 37.6z"/><path id="Tracé_869" data-name="Tracé 869" class="cls-4" d="M322.74 76.19c-.68 0-1.34.77-1.76 2a7.71 7.71 0 01-2.35 0c-.54-.08-1.17-.14-1.85-.19a33.43 33.43 0 00-.93-8.52c.67-.2 1.3-.39 1.82-.58a7.47 7.47 0 012.29-.51c.68 1.16 1.49 1.84 2.14 1.64 1-.29 1.19-2.38.5-4.68s-2-3.93-3-3.64c-.65.2-1 1.21-.89 2.55a7.2 7.2 0 01-2.19.84c-.55.13-1.18.31-1.86.53a33.5 33.5 0 00-4.59-8.38c.57-.46 1.08-.91 1.5-1.3a7.45 7.45 0 011.91-1.38c1.08.8 2.1 1.1 2.61.66.77-.65.15-2.66-1.4-4.5s-3.42-2.8-4.19-2.15c-.51.43-.4 1.49.2 2.69a7.47 7.47 0 01-1.7 1.66c-.47.35-1 .79-1.56 1.28a32.8 32.8 0 00-6.65-5.32c.38-.67.71-1.3 1-1.85a7.52 7.52 0 011.27-2c1.3.34 2.35.24 2.67-.36.48-.88-.85-2.52-3-3.66s-4.21-1.34-4.69-.45c-.32.6.18 1.53 1.18 2.43a7.36 7.36 0 01-1 2.14c-.32.52-.67 1.15-1 1.85a32.87 32.87 0 00-9.1-2.63c.09-.81.14-1.56.16-2.19a7.56 7.56 0 01.37-2.32c1.33-.2 2.26-.72 2.32-1.39.09-1-1.78-2-4.17-2.19s-4.4.44-4.49 1.44c-.05.68.78 1.34 2 1.77a7.65 7.65 0 010 2.34c-.09.64-.16 1.4-.21 2.23a33.46 33.46 0 00-8.4.93c-.22-.82-.46-1.58-.68-2.2a7.47 7.47 0 01-.51-2.29c1.16-.68 1.84-1.49 1.64-2.14-.28-1-2.38-1.19-4.68-.5s-3.93 2-3.64 3c.2.65 1.21 1 2.55.88a7.66 7.66 0 01.85 2.2c.15.64.37 1.41.64 2.23a33.52 33.52 0 00-8.27 4.5c-.54-.68-1.07-1.3-1.53-1.79a7.58 7.58 0 01-1.38-1.9c.8-1.08 1.1-2.1.66-2.62-.65-.77-2.66-.14-4.5 1.4s-2.8 3.42-2.15 4.19c.44.52 1.49.4 2.69-.2a7.47 7.47 0 011.64 1.68c.4.54.92 1.17 1.51 1.83a33 33 0 00-5.29 6.53c-.77-.44-1.49-.83-2.11-1.11a7.52 7.52 0 01-2-1.27c.34-1.3.24-2.35-.36-2.67-.88-.48-2.52.85-3.66 3s-1.34 4.21-.45 4.69c.6.32 1.53-.18 2.42-1.18a7.3 7.3 0 012.15 1c.58.35 1.3.75 2.09 1.14a33 33 0 00-2.71 9 28.6 28.6 0 00-2.35-.18 7.32 7.32 0 01-2.32-.38c-.2-1.32-.71-2.25-1.39-2.31-1-.09-2 1.78-2.19 4.17s.44 4.4 1.45 4.48c.67.06 1.33-.77 1.76-2a7.41 7.41 0 012.35 0c.66.1 1.47.18 2.34.23a33.74 33.74 0 00.84 8.38c-.84.22-1.6.46-2.22.69a7.58 7.58 0 01-2.3.5c-.67-1.16-1.49-1.83-2.14-1.64-1 .29-1.18 2.39-.5 4.68s2 3.93 3 3.64c.65-.19 1-1.21.89-2.55a7.76 7.76 0 012.19-.84c.64-.15 1.4-.37 2.22-.64a33.47 33.47 0 003.46 7c-1 .87-1.65 2.32.25 2-.36.3-.69.6-1 .87a7.54 7.54 0 01-1.9 1.37c-1.08-.8-2.1-1.09-2.62-.66-.77.65-.14 2.66 1.4 4.5s3.42 2.8 4.19 2.16c.52-.44.4-1.49-.2-2.69a7.51 7.51 0 011.68-1.65c.5-.37 1.08-.85 1.69-1.38a33.17 33.17 0 006.54 5.39c-.39.69-.72 1.33-1 1.89a7.27 7.27 0 01-1.26 2c-1.3-.34-2.36-.24-2.68.36-.48.89.85 2.52 3 3.66s4.21 1.34 4.69.46c.32-.6-.18-1.54-1.18-2.43a7.69 7.69 0 011-2.15c.31-.51.66-1.13 1-1.82a33 33 0 009.1 2.8c-.08.74-.13 1.42-.14 2a7.32 7.32 0 01-.38 2.32c-1.32.2-2.25.71-2.31 1.39-.09 1 1.78 2 4.17 2.18s4.4-.44 4.48-1.44c.06-.67-.77-1.33-2-1.76a7.13 7.13 0 010-2.35c.08-.57.15-1.24.2-2a33.25 33.25 0 008.5-.83c.2.69.4 1.32.59 1.84a7.59 7.59 0 01.51 2.3c-1.17.67-1.84 1.49-1.65 2.14.29 1 2.39 1.18 4.69.5s3.92-2 3.63-3c-.19-.65-1.21-1-2.55-.89a7.76 7.76 0 01-.84-2.19c-.13-.54-.3-1.17-.52-1.84a33.38 33.38 0 008.46-4.5c.43.52.85 1 1.22 1.4a7.31 7.31 0 011.37 1.89c-.8 1.09-1.09 2.11-.65 2.62.64.77 2.66.14 4.5-1.4s2.8-3.42 2.15-4.19c-.44-.51-1.49-.4-2.69.2a7.51 7.51 0 01-1.65-1.68c-.32-.43-.71-.91-1.15-1.42a32.84 32.84 0 005.43-6.66c.58.33 1.13.61 1.62.83a7.78 7.78 0 012 1.27c-.35 1.3-.24 2.35.35 2.67.89.48 2.53-.84 3.66-3s1.34-4.21.46-4.68c-.6-.32-1.53.17-2.43 1.17a7.39 7.39 0 01-2.15-1c-.45-.28-1-.59-1.59-.9.32-.68.61-1.37.88-2.06l2.21.71a.92.92 0 001.15-.59l.34-1.07a.91.91 0 00-.59-1.15l-2.18-.7a32.57 32.57 0 00.93-4.34c.67.07 1.29.11 1.83.12a7.62 7.62 0 012.32.38c.2 1.33.71 2.26 1.39 2.31 1 .09 2-1.78 2.18-4.17s-.42-4.44-1.42-4.53zm-16 13.55A26.28 26.28 0 11296 54.15a26.31 26.31 0 0110.7 35.59z"/><path id="Tracé_870" data-name="Tracé 870" class="cls-4" d="M108.7 240.27c-.67-.06-1.33.77-1.76 2a7.72 7.72 0 01-2.35 0c-.53-.08-1.16-.14-1.84-.19a33.57 33.57 0 00-.94-8.53c.68-.19 1.3-.38 1.82-.57a7.59 7.59 0 012.3-.51c.67 1.16 1.49 1.84 2.14 1.64 1-.29 1.18-2.39.5-4.68s-2-3.93-3-3.64c-.65.2-1 1.21-.89 2.55a7.47 7.47 0 01-2.19.84c-.55.13-1.18.31-1.86.53a33.33 33.33 0 00-4.59-8.38c.57-.47 1.08-.91 1.5-1.3a7.58 7.58 0 011.9-1.38c1.08.8 2.1 1.09 2.62.66.77-.65.14-2.66-1.4-4.5s-3.42-2.8-4.19-2.15c-.52.43-.4 1.49.2 2.69A7.69 7.69 0 0195 217c-.47.35-1 .78-1.56 1.27a32.81 32.81 0 00-6.66-5.27c.39-.68.71-1.3 1-1.85a7.32 7.32 0 011.26-2c1.3.34 2.36.24 2.68-.36.48-.88-.85-2.52-3-3.66s-4.21-1.34-4.69-.45c-.32.6.18 1.53 1.18 2.42a7.69 7.69 0 01-1 2.15c-.32.52-.67 1.15-1 1.85a33.2 33.2 0 00-9.11-2.64c.09-.81.15-1.56.17-2.19a7.36 7.36 0 01.37-2.32c1.33-.2 2.26-.71 2.32-1.38.08-1-1.79-2-4.18-2.19s-4.4.44-4.48 1.44c-.06.68.77 1.34 2.05 1.76a7.71 7.71 0 010 2.35c-.09.64-.17 1.4-.22 2.23a33.43 33.43 0 00-8.39.93c-.23-.83-.46-1.58-.69-2.2a7.82 7.82 0 01-.5-2.29c1.16-.68 1.83-1.5 1.64-2.14-.29-1-2.39-1.19-4.68-.5s-3.93 2-3.64 3c.19.65 1.21 1 2.55.88a7.43 7.43 0 01.84 2.2c.16.64.38 1.41.65 2.23a33.34 33.34 0 00-8.27 4.5c-.55-.69-1.07-1.3-1.54-1.79a7.79 7.79 0 01-1.37-1.9c.8-1.09 1.09-2.1.66-2.62-.65-.77-2.66-.14-4.5 1.4s-2.8 3.42-2.15 4.19c.43.52 1.49.4 2.69-.2a7.69 7.69 0 011.64 1.68c.4.54.92 1.17 1.51 1.82a33 33 0 00-5.3 6.54 23.36 23.36 0 00-2.1-1.11 7.57 7.57 0 01-2-1.27c.35-1.3.25-2.35-.35-2.67-.89-.48-2.53.85-3.66 3s-1.34 4.21-.46 4.69c.6.32 1.54-.18 2.43-1.18a7.42 7.42 0 012.15 1c.57.35 1.29.75 2.09 1.14a33 33 0 00-2.71 9c-.87-.1-1.68-.16-2.36-.18a7.37 7.37 0 01-2.32-.38c-.2-1.32-.71-2.25-1.38-2.31-1-.09-2 1.78-2.19 4.17s.44 4.4 1.44 4.48c.68.06 1.34-.77 1.76-2a7.41 7.41 0 012.35 0c.67.1 1.47.18 2.35.23a33.27 33.27 0 00.84 8.38c-.84.22-1.6.46-2.23.69a7.45 7.45 0 01-2.29.5c-.68-1.16-1.5-1.83-2.14-1.64-1 .29-1.19 2.39-.5 4.68s2 3.93 3 3.64c.65-.19 1-1.21.88-2.55a7.94 7.94 0 012.2-.84c.64-.15 1.4-.37 2.21-.64a33.47 33.47 0 003.46 7c-1 .87-1.64 2.32.26 2-.36.3-.7.6-1 .87a7.42 7.42 0 01-1.91 1.37c-1.08-.8-2.1-1.09-2.61-.66-.77.65-.15 2.66 1.4 4.5s3.42 2.8 4.19 2.16c.51-.44.4-1.49-.2-2.7a7.47 7.47 0 011.68-1.64c.5-.37 1.08-.85 1.69-1.39a32.59 32.59 0 006.54 5.4c-.39.69-.73 1.33-1 1.88a7.2 7.2 0 01-1.27 2c-1.3-.34-2.35-.24-2.67.36-.48.88.85 2.52 3 3.66s4.21 1.34 4.69.46c.32-.6-.18-1.54-1.18-2.43a7.42 7.42 0 011-2.15c.31-.51.66-1.13 1-1.82a33 33 0 009.1 2.8c-.08.74-.13 1.42-.14 2a7.62 7.62 0 01-.38 2.32c-1.33.2-2.26.71-2.32 1.39-.08 1 1.79 2 4.18 2.18s4.4-.44 4.48-1.44c.06-.67-.77-1.34-2-1.76a7.72 7.72 0 010-2.35c.08-.57.15-1.24.2-2a33.37 33.37 0 008.51-.83c.19.69.39 1.31.59 1.84a7.58 7.58 0 01.5 2.3c-1.16.67-1.83 1.49-1.64 2.14.29 1 2.39 1.18 4.68.5s3.93-2 3.64-3c-.19-.65-1.21-1-2.55-.89a7.47 7.47 0 01-.84-2.19c-.13-.54-.3-1.17-.52-1.84a33.23 33.23 0 008.46-4.5c.43.52.84 1 1.22 1.4a7.43 7.43 0 011.37 1.9c-.8 1.08-1.09 2.1-.66 2.61.65.77 2.66.15 4.5-1.4s2.8-3.42 2.16-4.19c-.44-.51-1.5-.4-2.7.2a7.47 7.47 0 01-1.64-1.68c-.32-.43-.71-.91-1.15-1.42a33.17 33.17 0 005.43-6.66c.58.33 1.13.61 1.62.84a7.27 7.27 0 012 1.26c-.34 1.3-.24 2.35.36 2.67.89.48 2.52-.84 3.66-3s1.34-4.21.46-4.68c-.6-.32-1.54.17-2.43 1.18a7.69 7.69 0 01-2.15-1c-.45-.28-1-.58-1.59-.89.32-.69.61-1.38.88-2.07l2.21.71a.92.92 0 001.15-.59l.34-1.07a.92.92 0 00-.59-1.15l-2.18-.7a31.91 31.91 0 00.93-4.34c.67.07 1.29.11 1.83.13a7.66 7.66 0 012.32.37c.2 1.33.71 2.26 1.38 2.32 1 .08 2-1.79 2.19-4.17s-.53-4.48-1.53-4.57zm-16 13.55A26.28 26.28 0 1182 218.23a26.3 26.3 0 0110.67 35.59z"/><path id="Tracé_871" data-name="Tracé 871" class="cls-4" d="M398.93 340.91c-.67-.06-1.34.77-1.76 2a7.41 7.41 0 01-2.35 0c-.54-.07-1.16-.14-1.85-.19a33 33 0 00-.93-8.52c.68-.19 1.3-.39 1.82-.58a7.53 7.53 0 012.29-.51c.68 1.17 1.5 1.84 2.15 1.65 1-.29 1.18-2.39.5-4.69s-2-3.92-3-3.63c-.65.19-1 1.21-.88 2.55a7.94 7.94 0 01-2.2.84c-.54.13-1.18.3-1.86.52a33.19 33.19 0 00-4.59-8.38c.57-.46 1.09-.9 1.5-1.3a7.59 7.59 0 011.91-1.37c1.08.8 2.1 1.09 2.62.65.77-.64.14-2.66-1.4-4.5s-3.42-2.8-4.19-2.15c-.52.44-.4 1.49.2 2.69a7.73 7.73 0 01-1.68 1.65c-.47.35-1 .78-1.56 1.27a33.2 33.2 0 00-6.67-5.31c.38-.67.71-1.3 1-1.85a7.78 7.78 0 011.27-2c1.3.35 2.35.24 2.67-.35.48-.89-.84-2.53-3-3.66s-4.21-1.34-4.68-.46c-.33.6.17 1.53 1.17 2.43a7.33 7.33 0 01-.95 2.14 17.4 17.4 0 00-1 1.86 33.3 33.3 0 00-9.11-2.64c.09-.81.15-1.56.16-2.19a7.32 7.32 0 01.38-2.32c1.32-.2 2.25-.71 2.31-1.39.09-1-1.78-2-4.17-2.18s-4.4.44-4.48 1.44c-.06.67.77 1.34 2 1.76a7.41 7.41 0 010 2.35c-.1.63-.17 1.39-.22 2.22a33.33 33.33 0 00-8.39.94c-.23-.83-.46-1.58-.69-2.2a7.29 7.29 0 01-.5-2.3c1.16-.67 1.83-1.49 1.64-2.14-.29-1-2.39-1.18-4.69-.5s-3.92 2-3.63 3c.19.65 1.21 1 2.55.89a7.76 7.76 0 01.84 2.19c.15.65.37 1.42.65 2.24a33 33 0 00-8.27 4.5c-.55-.69-1.08-1.3-1.54-1.79a7.59 7.59 0 01-1.37-1.91c.8-1.08 1.09-2.1.65-2.62-.64-.77-2.66-.14-4.5 1.4s-2.8 3.42-2.15 4.19c.44.52 1.49.4 2.69-.2a7.51 7.51 0 011.65 1.68c.4.55.92 1.17 1.5 1.83a33.26 33.26 0 00-5.29 6.53c-.77-.44-1.49-.82-2.11-1.11a7.48 7.48 0 01-2-1.26c.34-1.3.24-2.35-.35-2.68-.89-.47-2.53.85-3.67 3s-1.34 4.21-.45 4.69c.6.32 1.53-.17 2.43-1.18a7.63 7.63 0 012.14 1c.58.36 1.3.75 2.09 1.15a33 33 0 00-2.7 9c-.88-.1-1.69-.17-2.36-.19a7.61 7.61 0 01-2.32-.37c-.2-1.33-.71-2.26-1.39-2.32-1-.08-2 1.79-2.18 4.17s.44 4.4 1.44 4.49c.67.06 1.34-.77 1.76-2.05a7.72 7.72 0 012.35 0c.67.1 1.47.17 2.35.22a33.22 33.22 0 00.83 8.38c-.83.23-1.6.47-2.22.69a7.53 7.53 0 01-2.29.51c-.68-1.16-1.5-1.84-2.15-1.64-1 .29-1.18 2.38-.5 4.68s2 3.93 3 3.64c.65-.2 1-1.21.88-2.55a7.16 7.16 0 012.2-.84c.64-.16 1.4-.38 2.21-.65a33.47 33.47 0 003.46 7c-1 .88-1.64 2.33.26 2-.37.31-.7.6-1 .87a7.63 7.63 0 01-1.91 1.38c-1.08-.8-2.1-1.1-2.62-.66-.77.65-.14 2.66 1.4 4.5s3.42 2.8 4.19 2.15c.52-.44.4-1.49-.2-2.69a7.47 7.47 0 011.68-1.64c.5-.38 1.09-.85 1.69-1.39a33.22 33.22 0 006.54 5.4 47.2 47.2 0 00-1 1.88 7.48 7.48 0 01-1.26 2c-1.3-.34-2.35-.24-2.68.35-.47.89.85 2.53 3 3.66s4.21 1.35 4.68.46c.32-.6-.17-1.53-1.17-2.43a7.33 7.33 0 01.95-2.14c.32-.52.66-1.14 1-1.83a32.56 32.56 0 009.1 2.8c-.08.74-.13 1.42-.15 2a7.56 7.56 0 01-.37 2.32c-1.33.2-2.26.72-2.32 1.39-.08 1 1.78 2 4.17 2.19s4.4-.44 4.49-1.44c0-.68-.77-1.34-2.05-1.77a7.72 7.72 0 010-2.35c.08-.56.15-1.24.2-2a33.36 33.36 0 008.51-.82c.19.68.39 1.31.58 1.84a7.47 7.47 0 01.51 2.29c-1.16.68-1.84 1.49-1.64 2.14.29 1 2.38 1.19 4.68.5s3.93-2 3.64-3c-.2-.65-1.21-1-2.55-.88a7.36 7.36 0 01-.84-2.2c-.13-.54-.3-1.16-.52-1.83a33.58 33.58 0 008.46-4.51c.43.53.84 1 1.21 1.4a7.58 7.58 0 011.38 1.9c-.8 1.08-1.1 2.1-.66 2.62.65.77 2.66.14 4.5-1.4s2.8-3.42 2.15-4.19c-.44-.52-1.49-.4-2.69.2a7.47 7.47 0 01-1.64-1.68c-.32-.43-.72-.92-1.16-1.43a32.84 32.84 0 005.43-6.66c.59.33 1.14.61 1.62.84a7.48 7.48 0 012 1.26c-.34 1.3-.24 2.36.35 2.68.89.47 2.53-.85 3.67-3s1.34-4.21.45-4.69c-.6-.32-1.53.18-2.43 1.18a7.63 7.63 0 01-2.14-1c-.46-.28-1-.58-1.59-.89.31-.69.61-1.37.88-2.07l2.2.71a.92.92 0 001.15-.59l.35-1.07a.92.92 0 00-.59-1.15l-2.18-.7a33.47 33.47 0 00.92-4.34c.67.07 1.3.11 1.83.13a7.61 7.61 0 012.32.37c.2 1.33.71 2.26 1.39 2.32 1 .08 2-1.78 2.19-4.17s-.38-4.39-1.38-4.48zm-16 13.55a26.28 26.28 0 11-10.7-35.6 26.32 26.32 0 0110.69 35.59z"/><path id="Tracé_872" data-name="Tracé 872" class="cls-4" d="M292.19 268.71c-.52 0-1 .59-1.35 1.57a6 6 0 01-1.8 0c-.41-.06-.89-.11-1.41-.15a25.52 25.52 0 00-.72-6.52c.52-.15 1-.3 1.39-.44a5.91 5.91 0 011.76-.39c.52.89 1.14 1.4 1.64 1.26.73-.22.9-1.83.38-3.59s-1.56-3-2.29-2.78c-.5.15-.74.93-.68 2a5.92 5.92 0 01-1.68.65c-.42.1-.9.23-1.42.4a25.45 25.45 0 00-3.51-6.41c.43-.36.83-.7 1.15-1a5.59 5.59 0 011.46-1.05c.83.61 1.6.84 2 .5.59-.5.11-2-1.07-3.44s-2.62-2.14-3.21-1.64c-.4.33-.31 1.14.15 2.06a5.84 5.84 0 01-1.28 1.25c-.36.27-.77.6-1.19 1a25.57 25.57 0 00-5.09-4.07c.29-.52.54-1 .73-1.42a5.73 5.73 0 011-1.51c1 .26 1.8.19 2.05-.27.36-.68-.65-1.93-2.27-2.8s-3.22-1-3.59-.35c-.24.46.14 1.17.9 1.86a5.6 5.6 0 01-.73 1.64c-.24.4-.51.88-.78 1.42a25 25 0 00-7-2c.07-.62.11-1.19.12-1.68a5.91 5.91 0 01.29-1.77c1-.15 1.73-.54 1.77-1.06.07-.77-1.36-1.52-3.19-1.67s-3.36.33-3.43 1.1c0 .51.59 1 1.57 1.34a6 6 0 010 1.8c-.08.49-.13 1.07-.17 1.7a25.71 25.71 0 00-6.42.72c-.17-.63-.35-1.21-.52-1.68a5.68 5.68 0 01-.39-1.76c.89-.52 1.4-1.14 1.25-1.64-.22-.73-1.82-.9-3.58-.38s-3 1.55-2.78 2.29c.15.5.93.74 2 .68a5.61 5.61 0 01.64 1.68c.12.49.29 1.08.5 1.71a25.33 25.33 0 00-6.39 3.33c-.42-.53-.82-1-1.18-1.37a5.83 5.83 0 01-1-1.46c.61-.82.84-1.6.5-2-.5-.58-2-.11-3.44 1.08s-2.14 2.61-1.64 3.2c.33.4 1.14.3 2.06-.16a5.89 5.89 0 011.25 1.29c.31.41.7.89 1.16 1.4a25.28 25.28 0 00-4 5c-.59-.34-1.15-.63-1.61-.85a5.62 5.62 0 01-1.52-1c.26-1 .19-1.8-.27-2-.68-.37-1.93.64-2.8 2.26s-1 3.22-.35 3.59c.46.24 1.17-.14 1.86-.9a5.6 5.6 0 011.64.73c.44.27 1 .57 1.6.88a25.08 25.08 0 00-2.07 6.88c-.67-.07-1.29-.12-1.8-.13a5.91 5.91 0 01-1.77-.29c-.16-1-.55-1.73-1.06-1.77-.77-.07-1.52 1.36-1.68 3.19s.34 3.36 1.1 3.43c.52 0 1-.59 1.35-1.57a6 6 0 011.8 0c.51.08 1.13.14 1.8.18a25.07 25.07 0 00.64 6.4c-.64.18-1.23.36-1.7.53a5.91 5.91 0 01-1.76.39c-.51-.89-1.14-1.4-1.64-1.26-.73.23-.9 1.83-.38 3.59s1.56 3 2.29 2.78c.5-.15.74-.93.68-1.95a5.92 5.92 0 011.68-.65 17.18 17.18 0 001.69-.49 25.48 25.48 0 002.65 5.33c-.76.67-1.26 1.78.19 1.5-.27.24-.53.46-.75.67a5.78 5.78 0 01-1.45 1c-.83-.61-1.61-.84-2-.5-.59.5-.11 2 1.07 3.44s2.62 2.14 3.2 1.64c.4-.33.31-1.14-.15-2.05a5.51 5.51 0 011.29-1.26c.38-.29.82-.65 1.29-1.06a25.45 25.45 0 005 4.13c-.3.52-.55 1-.75 1.44a5.73 5.73 0 01-1 1.51c-1-.26-1.8-.18-2 .27-.37.68.64 1.93 2.26 2.8s3.22 1 3.59.35c.24-.45-.14-1.17-.9-1.85a5.55 5.55 0 01.73-1.65c.24-.39.5-.86.77-1.39a25 25 0 007 2.14c-.06.56-.1 1.09-.11 1.53a5.61 5.61 0 01-.29 1.77c-1 .16-1.72.55-1.77 1.06-.07.77 1.36 1.52 3.19 1.68s3.36-.34 3.43-1.1c0-.52-.59-1-1.56-1.35a5.72 5.72 0 010-1.8c.06-.43.11-.95.15-1.51a25.42 25.42 0 006.51-.63c.15.52.3 1 .45 1.41a5.54 5.54 0 01.38 1.75c-.88.52-1.4 1.15-1.25 1.64.22.74 1.82.91 3.58.38s3-1.55 2.78-2.29c-.15-.5-.92-.73-1.95-.67a5.72 5.72 0 01-.64-1.68c-.1-.42-.23-.89-.4-1.4a25.65 25.65 0 006.47-3.45c.33.4.64.77.93 1.07a5.83 5.83 0 011.05 1.46c-.61.82-.84 1.6-.5 2 .5.58 2 .1 3.44-1.08s2.14-2.61 1.64-3.2c-.33-.4-1.13-.3-2.06.16a5.89 5.89 0 01-1.25-1.29c-.25-.33-.55-.7-.88-1.09a25.4 25.4 0 004.15-5.09c.45.25.87.46 1.24.64a5.69 5.69 0 011.51 1c-.26 1-.18 1.8.27 2.05.68.36 1.93-.65 2.8-2.26s1-3.22.35-3.59c-.46-.24-1.17.14-1.86.9a5.88 5.88 0 01-1.64-.73c-.34-.22-.76-.45-1.21-.68.24-.53.46-1.05.67-1.59l1.69.55a.7.7 0 00.88-.45l.26-.82a.7.7 0 00-.45-.88l-1.67-.54a25.15 25.15 0 00.71-3.32c.51.06 1 .09 1.4.1a5.91 5.91 0 011.77.29c.16 1 .55 1.73 1.06 1.77.77.07 1.52-1.36 1.68-3.19s-.42-3.36-1.23-3.43zm-12.27 10.37a20.1 20.1 0 11-8.17-27.23 20.13 20.13 0 018.17 27.23z"/><path id="Tracé_873" data-name="Tracé 873" class="cls-5" d="M388.94 212.54c-.52 0-1 .59-1.35 1.56a5.72 5.72 0 01-1.8 0c-.41-.06-.89-.11-1.41-.15a25.62 25.62 0 00-.72-6.52c.52-.14 1-.3 1.39-.44a6 6 0 011.76-.39c.52.89 1.14 1.4 1.64 1.26.73-.22.9-1.83.38-3.58s-1.56-3-2.29-2.78c-.5.15-.74.92-.68 2a5.9 5.9 0 01-1.68.64c-.42.1-.9.24-1.42.4a25.8 25.8 0 00-3.51-6.41c.44-.35.83-.69 1.15-1a5.78 5.78 0 011.45-1.05c.83.61 1.61.84 2 .5.59-.5.11-2-1.07-3.44s-2.62-2.14-3.2-1.64c-.4.33-.31 1.13.15 2a5.67 5.67 0 01-1.28 1.26c-.36.27-.77.6-1.19 1a25.52 25.52 0 00-5.09-4.06c.29-.52.54-1 .73-1.42a5.73 5.73 0 011-1.51c1 .26 1.8.18 2.05-.27.36-.68-.65-1.93-2.27-2.8s-3.22-1-3.58-.35c-.25.45.13 1.17.9 1.86a5.91 5.91 0 01-.74 1.64c-.24.4-.51.88-.78 1.41a25.32 25.32 0 00-7-2c.07-.62.11-1.2.13-1.68a5.6 5.6 0 01.28-1.77c1-.16 1.73-.55 1.77-1.06.07-.77-1.36-1.52-3.19-1.68s-3.36.34-3.43 1.1c0 .52.59 1 1.57 1.35a6 6 0 010 1.8c-.07.49-.13 1.07-.17 1.7a25.71 25.71 0 00-6.42.72c-.17-.64-.35-1.21-.52-1.69a5.85 5.85 0 01-.39-1.75c.89-.52 1.4-1.15 1.26-1.64-.23-.74-1.83-.91-3.59-.38s-3 1.55-2.78 2.29c.15.5.93.73 1.95.67a6 6 0 01.65 1.68 15.26 15.26 0 00.5 1.71 25.75 25.75 0 00-6.33 3.45c-.42-.53-.82-1-1.17-1.37a5.87 5.87 0 01-1.06-1.46c.61-.83.84-1.61.5-2-.5-.59-2-.11-3.43 1.07s-2.15 2.62-1.65 3.2c.33.4 1.14.31 2.06-.15a5.88 5.88 0 011.26 1.28 16.74 16.74 0 001.15 1.4 25.28 25.28 0 00-4.05 5c-.59-.33-1.14-.63-1.61-.85a5.75 5.75 0 01-1.52-1c.26-1 .19-1.8-.27-2.05-.68-.36-1.93.65-2.8 2.27s-1 3.22-.35 3.58c.46.25 1.18-.13 1.86-.9a5.75 5.75 0 011.64.73 17.2 17.2 0 001.6.88 25.6 25.6 0 00-2.07 6.89c-.67-.08-1.29-.13-1.8-.14a5.61 5.61 0 01-1.77-.29c-.16-1-.55-1.72-1.06-1.77-.77-.06-1.52 1.36-1.67 3.19s.33 3.37 1.1 3.43c.51.05 1-.59 1.34-1.56a5.72 5.72 0 011.8 0c.51.07 1.13.13 1.8.17a25.61 25.61 0 00.64 6.41c-.64.17-1.22.35-1.7.53a5.54 5.54 0 01-1.76.38c-.51-.88-1.14-1.4-1.63-1.25-.74.22-.91 1.82-.38 3.58s1.55 3 2.28 2.78c.5-.15.74-.92.68-1.95a5.61 5.61 0 011.68-.64c.49-.12 1.07-.29 1.69-.49a25.4 25.4 0 002.65 5.32c-.76.67-1.26 1.78.19 1.51-.27.23-.53.45-.75.66a5.38 5.38 0 01-1.45 1.05c-.83-.61-1.61-.83-2-.5-.59.5-.11 2 1.07 3.44s2.62 2.14 3.21 1.65c.4-.34.3-1.14-.16-2.06a5.71 5.71 0 011.29-1.26c.38-.28.83-.65 1.29-1.06a24.77 24.77 0 005 4.13c-.3.53-.55 1-.75 1.44a6.19 6.19 0 01-1 1.52c-1-.27-1.8-.19-2 .27-.37.67.65 1.93 2.26 2.8s3.22 1 3.59.35c.24-.46-.14-1.18-.9-1.86a5.75 5.75 0 01.73-1.64c.24-.39.51-.87.78-1.4a25 25 0 007 2.14c-.06.57-.1 1.09-.11 1.53a5.67 5.67 0 01-.29 1.78c-1 .15-1.72.54-1.77 1.06-.06.76 1.37 1.51 3.19 1.67s3.37-.34 3.43-1.1c.05-.52-.59-1-1.56-1.35a5.72 5.72 0 010-1.8c.06-.43.11-1 .15-1.5a25.89 25.89 0 006.51-.64q.23.8.45 1.41a5.84 5.84 0 01.39 1.76c-.89.51-1.4 1.14-1.26 1.63.22.74 1.83.91 3.58.38s3-1.55 2.78-2.29c-.15-.5-.92-.73-1.95-.67a5.9 5.9 0 01-.64-1.68c-.1-.41-.23-.89-.4-1.4a25.33 25.33 0 006.47-3.45c.33.4.65.77.93 1.07a5.83 5.83 0 011.05 1.46c-.61.83-.83 1.6-.5 2 .5.59 2 .11 3.44-1.07s2.14-2.62 1.65-3.2c-.34-.4-1.14-.31-2.06.15a5.51 5.51 0 01-1.26-1.29c-.24-.32-.55-.7-.88-1.08a25.46 25.46 0 004.15-5.1c.45.25.87.47 1.24.64a5.73 5.73 0 011.51 1c-.26 1-.18 1.8.27 2 .68.37 1.94-.65 2.8-2.26s1-3.22.35-3.59c-.45-.24-1.17.14-1.86.9a5.6 5.6 0 01-1.64-.73c-.34-.21-.76-.44-1.21-.68.24-.52.46-1.05.67-1.58l1.69.54a.7.7 0 00.88-.45l.26-.82a.7.7 0 00-.45-.88l-1.67-.53a25.15 25.15 0 00.71-3.32c.51.05 1 .08 1.4.1a5.9 5.9 0 011.77.28c.16 1 .55 1.73 1.06 1.78.77.06 1.52-1.37 1.68-3.19s-.4-3.37-1.16-3.43zm-12.27 10.36a20.1 20.1 0 11-8.17-27.22 20.12 20.12 0 018.17 27.22z"/><path id="Tracé_874" data-name="Tracé 874" class="cls-2" d="M208.19 508.13c-.62.55-.43 1.83.35 3.27a8.84 8.84 0 01-2 2.07c-.51.42-1.1.92-1.7 1.49a40.69 40.69 0 00-8.38-6.26c.39-.76.73-1.48 1-2.1a9 9 0 011.46-2.47c1.6.36 2.88.2 3.24-.54.55-1.1-1.14-3-3.76-4.34s-5.19-1.46-5.74-.36c-.36.74.28 1.86 1.54 2.91a9.17 9.17 0 01-1.07 2.66c-.34.6-.71 1.31-1.08 2.1a40.85 40.85 0 00-11.3-2.89c.06-.89.09-1.71.09-2.42a9.08 9.08 0 01.36-2.84c1.61-.3 2.72-1 2.76-1.79.07-1.22-2.25-2.34-5.18-2.49s-5.34.72-5.4 1.95c0 .82 1 1.6 2.56 2.06A8.92 8.92 0 01176 501c-.08.7-.13 1.54-.16 2.45a39.68 39.68 0 00-10.25 1.55c-.29-.9-.58-1.72-.85-2.4a9.58 9.58 0 01-.72-2.78c1.39-.87 2.18-1.9 1.92-2.68-.4-1.16-3-1.34-5.74-.41s-4.7 2.65-4.3 3.8c.26.79 1.51 1.12 3.14 1a9.17 9.17 0 011.12 2.64c.2.72.47 1.56.8 2.46a40.46 40.46 0 00-9.96 5.87c-.65-.75-1.27-1.42-1.82-2a9.22 9.22 0 01-1.76-2.27c.93-1.35 1.25-2.6.69-3.22-.82-.91-3.25-.06-5.42 1.9s-3.27 4.29-2.45 5.2c.56.62 1.84.43 3.28-.36a9.27 9.27 0 012.07 2c.49.61 1.11 1.31 1.8 2.05a40.7 40.7 0 00-6.15 8.26c-.92-.49-1.79-.91-2.53-1.22a8.8 8.8 0 01-2.47-1.46c.36-1.6.2-2.88-.54-3.24-1.1-.55-3 1.14-4.34 3.76s-1.46 5.19-.36 5.74c.74.36 1.86-.28 2.91-1.54a9.17 9.17 0 012.66 1.07c.7.4 1.57.84 2.53 1.29a40.29 40.29 0 00-2.86 11.12c-1.07-.09-2.06-.13-2.88-.12a9.08 9.08 0 01-2.84-.36c-.3-1.61-1-2.72-1.79-2.77-1.23-.06-2.34 2.26-2.49 5.18s.72 5.34 1.94 5.4c.83 0 1.6-1 2.07-2.57a9.14 9.14 0 012.86-.06c.82.09 1.81.15 2.89.17a39.67 39.67 0 001.42 10.16c-1 .32-2 .65-2.75 1a9.19 9.19 0 01-2.77.71c-.88-1.38-1.9-2.17-2.68-1.91-1.17.39-1.35 3-.41 5.73s2.64 4.7 3.8 4.31c.78-.27 1.12-1.52 1-3.15a9.46 9.46 0 012.64-1.12c.8-.22 1.75-.53 2.76-.9a40.43 40.43 0 005.78 9.9c-.81.7-1.54 1.37-2.12 2a9 9 0 01-2.27 1.75c-1.35-.92-2.6-1.24-3.22-.69-.91.82-.06 3.25 1.9 5.42s4.29 3.27 5.21 2.45c.61-.56.42-1.84-.36-3.27a9.3 9.3 0 012-2.08c.64-.51 1.38-1.16 2.15-1.9a40.84 40.84 0 008.17 6.22c-.49.94-.92 1.81-1.23 2.56a9.47 9.47 0 01-1.46 2.47c-1.6-.36-2.88-.2-3.25.54-.54 1.1 1.14 3 3.77 4.34s5.19 1.46 5.73.36c.37-.74-.28-1.86-1.54-2.91a9.19 9.19 0 011.08-2.66c.4-.7.83-1.56 1.27-2.51a40.47 40.47 0 009.09 2.7c-.05 1.61.7 3.4 2 1.41v1.6a9.41 9.41 0 01-.35 2.85c-1.62.3-2.73 1-2.77 1.79-.06 1.22 2.26 2.34 5.18 2.49s5.34-.73 5.4-1.95c.05-.83-1-1.6-2.56-2.06a9.21 9.21 0 01-.07-2.87c.09-.76.14-1.67.17-2.66a40 40 0 0010.26-1.34c.29.91.58 1.75.86 2.44a9.51 9.51 0 01.72 2.77c-1.39.88-2.18 1.9-1.91 2.69.39 1.16 3 1.34 5.73.4s4.7-2.64 4.3-3.8c-.26-.78-1.51-1.12-3.14-1a8.94 8.94 0 01-1.12-2.64c-.19-.71-.46-1.53-.78-2.42a40.06 40.06 0 0010.07-5.79c.59.68 1.16 1.29 1.67 1.79a9.14 9.14 0 011.63 2.23c-.92 1.36-1.24 2.61-.69 3.22.82.91 3.25.06 5.42-1.9s3.27-4.28 2.45-5.2c-.55-.61-1.83-.42-3.27.36a9.3 9.3 0 01-2.08-2c-.43-.54-1-1.16-1.59-1.82a40.94 40.94 0 006.35-8.28c.77.4 1.5.75 2.12 1a9.31 9.31 0 012.47 1.46c-.36 1.6-.2 2.88.55 3.25 1.1.54 3-1.14 4.34-3.77s1.45-5.19.35-5.73c-.74-.37-1.86.28-2.91 1.54a9.13 9.13 0 01-2.65-1.08c-.59-.33-1.3-.7-2.07-1.06a41.08 41.08 0 003-11.3c.82 0 1.6.08 2.25.07a9.18 9.18 0 012.85.36c.3 1.61 1 2.72 1.78 2.77 1.23.06 2.35-2.26 2.5-5.18s-.73-5.34-2-5.4c-.83 0-1.6 1-2.06 2.56a8.92 8.92 0 01-2.87.07c-.65-.07-1.41-.12-2.23-.15a40.54 40.54 0 00-1.42-10.39c.78-.25 1.49-.5 2.09-.75a9.18 9.18 0 012.78-.71c.87 1.38 1.9 2.17 2.68 1.91 1.16-.4 1.34-3 .4-5.73s-2.64-4.7-3.8-4.31c-.78.27-1.11 1.51-1 3.15a8.92 8.92 0 01-2.64 1.11c-.62.18-1.34.4-2.11.68-.35-.85-.72-1.69-1.12-2.5l2.47-1.38a1.12 1.12 0 00.43-1.52l-.66-1.19a1.12 1.12 0 00-1.52-.43l-2.32 1.37a40.08 40.08 0 00-3.1-4.44c.62-.54 1.18-1.06 1.63-1.53a9.19 9.19 0 012.27-1.75c1.35.92 2.61 1.24 3.22.69.91-.82.06-3.25-1.9-5.42s-4.29-3.24-5.2-2.42zm-1.26 25.58a32.06 32.06 0 11-40.65-20.09 32.1 32.1 0 0140.64 20.09z"/><path id="Tracé_876" data-name="Tracé 876" class="cls-2" d="M207.82 306.13c-.61.55-.43 1.83.36 3.27a9.09 9.09 0 01-2 2.07c-.51.42-1.1.92-1.7 1.49a40.69 40.69 0 00-8.38-6.26c.39-.76.73-1.48 1-2.1a9.2 9.2 0 011.46-2.47c1.6.36 2.88.2 3.25-.54.54-1.1-1.15-3-3.77-4.34s-5.19-1.46-5.73-.36c-.37.74.28 1.86 1.53 2.91a9.17 9.17 0 01-1.07 2.66c-.34.6-.71 1.31-1.08 2.1a40.85 40.85 0 00-11.3-2.89c.06-.89.09-1.71.09-2.42a9.08 9.08 0 01.36-2.84c1.61-.3 2.72-1 2.76-1.79.07-1.22-2.25-2.34-5.17-2.49s-5.35.72-5.41 1.95c0 .82 1 1.6 2.57 2.06a9.21 9.21 0 01.06 2.87c-.08.7-.13 1.54-.16 2.45a39.74 39.74 0 00-10.27 1.54c-.29-.9-.57-1.72-.85-2.4a9.26 9.26 0 01-.71-2.78c1.38-.87 2.17-1.9 1.91-2.68-.4-1.16-3-1.34-5.73-.41s-4.7 2.65-4.31 3.8c.26.79 1.51 1.12 3.14 1a9.17 9.17 0 011.12 2.64c.2.72.47 1.56.8 2.46a40.46 40.46 0 00-9.93 5.93c-.65-.75-1.27-1.42-1.82-2a9.47 9.47 0 01-1.76-2.27c.93-1.35 1.25-2.6.69-3.22-.82-.91-3.25-.06-5.42 1.9s-3.27 4.29-2.44 5.2c.55.62 1.83.43 3.27-.36a9.27 9.27 0 012.07 2c.49.61 1.11 1.31 1.8 2.05a40.7 40.7 0 00-6.15 8.26c-.92-.49-1.79-.91-2.53-1.22a9 9 0 01-2.47-1.46c.36-1.6.2-2.88-.54-3.24-1.1-.55-3.05 1.14-4.34 3.76s-1.46 5.19-.36 5.74c.74.36 1.86-.28 2.91-1.54a9.17 9.17 0 012.66 1.07c.7.4 1.57.84 2.53 1.29a40.64 40.64 0 00-2.86 11.12c-1.07-.09-2.06-.13-2.88-.12a9.08 9.08 0 01-2.84-.36c-.3-1.61-1-2.72-1.79-2.77-1.23-.06-2.34 2.26-2.49 5.18s.72 5.34 1.95 5.4c.82 0 1.6-1 2.06-2.57a9.14 9.14 0 012.86-.06c.82.09 1.81.15 2.89.17a40.5 40.5 0 001.42 10.16c-1 .32-2 .65-2.74 1a9.26 9.26 0 01-2.78.71c-.87-1.38-1.9-2.17-2.68-1.91-1.16.4-1.35 3-.41 5.73s2.64 4.7 3.8 4.31c.78-.26 1.12-1.51 1-3.15a9.43 9.43 0 012.64-1.11c.8-.22 1.75-.53 2.76-.91a40.52 40.52 0 005.79 9.91c-.82.7-1.55 1.36-2.13 1.95a9.17 9.17 0 01-2.26 1.76c-1.35-.92-2.61-1.24-3.22-.69-.91.82-.06 3.25 1.9 5.42s4.29 3.27 5.2 2.45c.61-.56.43-1.84-.36-3.27a9.53 9.53 0 012-2.08c.64-.51 1.38-1.16 2.16-1.9a40.56 40.56 0 008.17 6.22c-.5.94-.92 1.81-1.24 2.56a9 9 0 01-1.46 2.47c-1.6-.36-2.88-.2-3.24.54-.55 1.1 1.14 3 3.76 4.34s5.19 1.46 5.74.36c.36-.74-.28-1.86-1.54-2.91a9.45 9.45 0 011.07-2.66c.4-.7.84-1.56 1.28-2.51a40 40 0 009.08 2.7c0 1.61.71 3.41 2 1.42v1.6a9.08 9.08 0 01-.36 2.84c-1.61.3-2.72 1-2.76 1.79-.07 1.22 2.25 2.34 5.17 2.49s5.35-.72 5.41-1.95c0-.82-1-1.6-2.57-2.06a9.21 9.21 0 01-.06-2.87c.08-.76.14-1.67.17-2.66a40 40 0 0010.26-1.34c.28.91.58 1.75.86 2.44a9.18 9.18 0 01.71 2.78c-1.38.87-2.17 1.9-1.91 2.68.39 1.16 3 1.34 5.73.4s4.7-2.64 4.31-3.8c-.26-.78-1.51-1.12-3.15-1a9 9 0 01-1.12-2.63c-.19-.71-.46-1.54-.78-2.42a40.4 40.4 0 0010.07-5.8c.59.68 1.16 1.3 1.67 1.79a9.19 9.19 0 011.75 2.27c-.92 1.35-1.24 2.6-.69 3.22.82.91 3.25.06 5.42-1.9s3.27-4.29 2.45-5.2c-.55-.62-1.83-.43-3.27.35a9.09 9.09 0 01-2.08-2c-.44-.54-1-1.16-1.59-1.81a40.81 40.81 0 006.34-8.28c.78.4 1.5.74 2.13 1a9 9 0 012.47 1.45c-.36 1.6-.2 2.88.55 3.25 1.1.54 3-1.14 4.34-3.77s1.45-5.19.35-5.73c-.74-.37-1.86.28-2.91 1.54a9.13 9.13 0 01-2.65-1.08c-.59-.33-1.3-.7-2.07-1.06a41 41 0 003-11.3c.82.05 1.6.08 2.25.07a9.49 9.49 0 012.85.36c.3 1.61 1 2.72 1.78 2.77 1.23.06 2.35-2.26 2.5-5.18s-.73-5.34-2-5.4c-.83 0-1.6 1-2.06 2.57a9.21 9.21 0 01-2.87.06c-.65-.07-1.41-.12-2.23-.15a40.54 40.54 0 00-1.42-10.39c.77-.25 1.49-.5 2.09-.75a9.19 9.19 0 012.77-.71c.88 1.39 1.9 2.17 2.69 1.91 1.16-.39 1.34-3 .4-5.73s-2.64-4.7-3.8-4.31c-.78.27-1.11 1.52-1 3.15a8.94 8.94 0 01-2.64 1.12c-.62.17-1.34.4-2.12.67-.34-.85-.71-1.68-1.11-2.5l2.47-1.38a1.12 1.12 0 00.43-1.52l-.67-1.19a1.1 1.1 0 00-1.51-.43L210.9 321a40 40 0 00-3.1-4.43c.62-.55 1.17-1.07 1.63-1.53a9.47 9.47 0 012.27-1.76c1.35.93 2.61 1.24 3.22.69.91-.82.06-3.25-1.9-5.42s-4.29-3.24-5.2-2.42zm-1.26 25.58a32.06 32.06 0 11-40.65-20.09 32.1 32.1 0 0140.64 20.09z"/><path id="Tracé_877" data-name="Tracé 877" class="cls-3" d="M112.35 404.29c-.53.48-.37 1.59.31 2.84a8.16 8.16 0 01-1.72 1.8c-.44.36-.94.8-1.47 1.28a35.59 35.59 0 00-7.26-5.42c.34-.66.64-1.28.86-1.82a8.29 8.29 0 011.27-2.14c1.38.32 2.5.17 2.81-.47.47-.95-1-2.63-3.26-3.76s-4.5-1.26-5-.3c-.31.64.25 1.61 1.34 2.52a8.08 8.08 0 01-.94 2.3c-.29.51-.61 1.13-.93 1.81a35.26 35.26 0 00-9.78-2.49c0-.77.08-1.49.07-2.1a8.19 8.19 0 01.31-2.46c1.4-.26 2.36-.84 2.4-1.55 0-1.06-2-2-4.49-2.16s-4.62.63-4.68 1.69c0 .71.86 1.38 2.23 1.78a8.31 8.31 0 010 2.49c-.07.61-.11 1.33-.14 2.12a34.83 34.83 0 00-8.9 1.31c-.24-.78-.5-1.49-.73-2.08a7.94 7.94 0 01-.62-2.4c1.2-.76 1.88-1.65 1.65-2.32-.34-1-2.56-1.17-5-.36s-4.07 2.29-3.73 3.3c.23.67 1.31 1 2.73.84a7.89 7.89 0 011 2.28c.18.63.41 1.35.7 2.13a34.71 34.71 0 00-8.6 5.14c-.57-.66-1.1-1.24-1.58-1.7a7.82 7.82 0 01-1.52-2c.8-1.17 1.08-2.26.6-2.79-.71-.79-2.82-.05-4.7 1.65s-2.83 3.71-2.12 4.5c.48.53 1.59.36 2.84-.31a8.11 8.11 0 011.8 1.71c.42.53 1 1.13 1.56 1.77a34.81 34.81 0 00-5.33 7.16c-.8-.43-1.55-.79-2.19-1.06a7.94 7.94 0 01-2.14-1.26c.31-1.39.17-2.5-.47-2.81-1-.47-2.64 1-3.76 3.26s-1.26 4.49-.31 5c.64.32 1.61-.24 2.52-1.33a7.94 7.94 0 012.3.93c.61.35 1.36.73 2.2 1.11a34.94 34.94 0 00-2.48 9.63c-.93-.07-1.78-.11-2.5-.1a7.88 7.88 0 01-2.46-.31c-.26-1.39-.83-2.35-1.55-2.39-1.06-.06-2 1.95-2.15 4.48s.62 4.63 1.68 4.68c.72 0 1.39-.86 1.79-2.22a7.93 7.93 0 012.48-.06c.71.08 1.57.13 2.5.15a34.86 34.86 0 001.23 8.8c-.9.28-1.71.56-2.37.83a8.09 8.09 0 01-2.4.62c-.76-1.2-1.65-1.88-2.33-1.66-1 .34-1.16 2.57-.35 5s2.29 4.07 3.29 3.73c.68-.23 1-1.31.84-2.73a8.27 8.27 0 012.29-1c.69-.19 1.51-.45 2.39-.78a35 35 0 005 8.58c-.71.6-1.34 1.18-1.84 1.69a7.82 7.82 0 01-2 1.52c-1.17-.8-2.26-1.08-2.79-.6-.79.71-.05 2.81 1.64 4.69s3.72 2.83 4.5 2.12c.54-.48.37-1.59-.31-2.83a8 8 0 011.72-1.8c.55-.45 1.19-1 1.86-1.65a35.05 35.05 0 007.08 5.39c-.43.81-.8 1.57-1.07 2.21a7.94 7.94 0 01-1.17 2.14c-1.39-.31-2.5-.17-2.82.47-.47 1 1 2.64 3.26 3.76s4.5 1.26 5 .31c.32-.64-.24-1.61-1.33-2.52a7.94 7.94 0 01.93-2.3c.35-.61.72-1.35 1.1-2.17a35.83 35.83 0 007.86 2.34c0 1.39.61 2.94 1.7 1.22v1.38a7.85 7.85 0 01-.32 2.46c-1.4.27-2.35.84-2.39 1.55 0 1.06 2 2 4.48 2.16s4.63-.63 4.69-1.69c0-.71-.87-1.38-2.23-1.78a7.65 7.65 0 010-2.48c.07-.66.12-1.45.14-2.31a34.65 34.65 0 008.89-1.16c.25.79.5 1.51.74 2.11a7.94 7.94 0 01.62 2.4c-1.2.76-1.88 1.65-1.65 2.32.34 1 2.56 1.17 5 .35s4.07-2.28 3.73-3.29c-.23-.68-1.31-1-2.72-.84a7.65 7.65 0 01-1-2.28c-.17-.62-.4-1.33-.68-2.1a35.38 35.38 0 008.72-5c.51.59 1 1.12 1.44 1.55a8.09 8.09 0 011.53 2c-.8 1.17-1.08 2.26-.6 2.79.71.79 2.81.05 4.7-1.65s2.82-3.71 2.11-4.5c-.48-.53-1.58-.37-2.83.31a7.7 7.7 0 01-1.8-1.71c-.38-.47-.85-1-1.38-1.57a35.15 35.15 0 005.49-7.18c.67.35 1.3.65 1.85.88a8 8 0 012.13 1.26c-.31 1.39-.17 2.5.47 2.81 1 .47 2.64-1 3.76-3.26s1.27-4.49.31-5c-.64-.32-1.61.24-2.52 1.33a8.05 8.05 0 01-2.3-.93c-.51-.29-1.12-.6-1.79-.92a35 35 0 002.61-9.79c.72.05 1.39.07 2 .07a7.88 7.88 0 012.46.31c.26 1.4.84 2.36 1.55 2.4 1.06.05 2-2 2.16-4.49s-.63-4.62-1.69-4.68c-.71 0-1.38.86-1.78 2.22a8 8 0 01-2.49.06c-.56-.06-1.22-.1-1.93-.13a34.56 34.56 0 00-1.23-9c.68-.22 1.29-.44 1.81-.65a8.09 8.09 0 012.4-.62c.76 1.2 1.65 1.88 2.33 1.65 1-.34 1.16-2.56.35-5s-2.29-4.07-3.29-3.73c-.68.23-1 1.31-.84 2.72a8 8 0 01-2.29 1c-.54.15-1.17.35-1.83.59-.3-.74-.63-1.46-1-2.17l2.14-1.2a1 1 0 00.37-1.31l-.58-1a1 1 0 00-1.31-.37l-2.21 1.14a35.25 35.25 0 00-2.69-3.84c.54-.47 1-.92 1.42-1.33a8.06 8.06 0 012-1.52c1.17.8 2.26 1.08 2.79.6.79-.71 0-2.81-1.65-4.69s-3.73-2.83-4.52-2.12zm-1.09 22.15a27.77 27.77 0 11-35.2-17.39 27.8 27.8 0 0135.2 17.39z"/><path id="Tracé_880" data-name="Tracé 880" class="cls-4" d="M94.19 576.88c-.5.45-.35 1.5.29 2.68a7.26 7.26 0 01-1.62 1.7c-.42.34-.9.76-1.4 1.22a33.43 33.43 0 00-6.87-5.13c.33-.63.6-1.21.82-1.72a7.55 7.55 0 011.2-2c1.31.3 2.36.16 2.66-.44.45-.9-.93-2.5-3.08-3.56s-4.26-1.19-4.7-.29c-.3.6.23 1.52 1.26 2.38a7.8 7.8 0 01-.88 2.18c-.28.49-.58 1.07-.89 1.72a33.29 33.29 0 00-9.26-2.36c0-.73.08-1.41.07-2a7.69 7.69 0 01.3-2.33c1.32-.24 2.23-.79 2.27-1.46 0-1-1.85-1.92-4.25-2s-4.38.59-4.43 1.6c0 .67.82 1.31 2.1 1.68a7.42 7.42 0 010 2.35c-.06.58-.1 1.27-.13 2a33.43 33.43 0 00-8.43 1.24c-.23-.74-.47-1.41-.69-2a7.76 7.76 0 01-.59-2.27c1.14-.72 1.79-1.56 1.57-2.2-.32-1-2.43-1.1-4.7-.33s-3.85 2.16-3.53 3.11c.22.64 1.24.92 2.58.8a7.75 7.75 0 01.91 2.16c.17.59.39 1.28.66 2a32.58 32.58 0 00-8.14 4.86c-.54-.62-1.05-1.17-1.5-1.62A7.61 7.61 0 0144.4 577c.76-1.11 1-2.14.57-2.64-.67-.75-2.66-.05-4.44 1.56s-2.68 3.51-2 4.26c.45.5 1.5.35 2.68-.29a7.47 7.47 0 011.7 1.62c.4.5.9 1.07 1.48 1.67a33.78 33.78 0 00-5 6.78c-.75-.4-1.46-.74-2.07-1a7.47 7.47 0 01-2-1.19c.3-1.31.16-2.37-.45-2.67-.9-.44-2.5.94-3.56 3.09s-1.19 4.25-.29 4.7c.61.3 1.52-.23 2.38-1.26a7.4 7.4 0 012.18.88c.58.33 1.29.69 2.08 1a33.57 33.57 0 00-2.35 9.12c-.87-.07-1.68-.1-2.36-.1a7.68 7.68 0 01-2.33-.29c-.24-1.32-.79-2.23-1.46-2.27-1 0-1.92 1.85-2.05 4.24s.6 4.38 1.6 4.44c.68 0 1.31-.82 1.69-2.1a7.42 7.42 0 012.35-.06c.67.08 1.49.12 2.37.14a33 33 0 001.09 8.37c-.84.26-1.62.53-2.25.79a7.44 7.44 0 01-2.27.58c-.72-1.13-1.56-1.78-2.2-1.56-1 .32-1.1 2.42-.34 4.7s2.17 3.85 3.12 3.53c.64-.22.92-1.25.8-2.58a7.49 7.49 0 012.16-.92c.66-.18 1.44-.43 2.27-.74a32.89 32.89 0 004.74 8.12c-.67.57-1.27 1.12-1.74 1.6a7.66 7.66 0 01-1.86 1.48c-1.11-.76-2.14-1-2.64-.57-.75.68 0 2.67 1.56 4.45s3.51 2.67 4.26 2c.5-.46.35-1.5-.29-2.69a7.26 7.26 0 011.62-1.7c.52-.42 1.13-1 1.76-1.56a33.23 33.23 0 006.7 5.1c-.4.77-.75 1.48-1 2.1a7.5 7.5 0 01-1.2 2c-1.31-.3-2.36-.16-2.66.45-.45.9.93 2.49 3.08 3.56s4.26 1.19 4.7.29c.3-.61-.22-1.53-1.26-2.39a7.47 7.47 0 01.89-2.17c.32-.58.68-1.28 1-2.06a32.6 32.6 0 007.48 2.19c0 1.32.58 2.79 1.61 1.16v1.31a7.61 7.61 0 01-.3 2.33c-1.32.25-2.23.79-2.26 1.47-.06 1 1.84 1.92 4.24 2s4.38-.59 4.43-1.6c0-.68-.81-1.31-2.1-1.69a7.41 7.41 0 010-2.35c.07-.62.11-1.37.14-2.18a32.8 32.8 0 008.41-1.1c.23.75.47 1.43.7 2a7.46 7.46 0 01.59 2.27c-1.14.72-1.78 1.56-1.57 2.2.32 1 2.43 1.1 4.7.34s3.77-2.16 3.45-3.07c-.21-.64-1.24-.92-2.58-.79a7.69 7.69 0 01-.91-2.17c-.16-.58-.38-1.26-.64-2a33.4 33.4 0 008.25-4.75c.49.56 1 1.06 1.37 1.47a7.61 7.61 0 011.44 1.85c-.76 1.11-1 2.14-.57 2.64.68.75 2.67 0 4.45-1.56s2.68-3.51 2-4.26c-.46-.5-1.5-.35-2.69.29a7.46 7.46 0 01-1.7-1.62c-.35-.44-.8-1-1.3-1.49a33.21 33.21 0 005.2-6.78c.64.32 1.23.6 1.75.82a7.65 7.65 0 012 1.2c-.3 1.31-.16 2.36.45 2.66.9.45 2.49-.94 3.56-3.09s1.19-4.25.29-4.7c-.61-.3-1.53.23-2.39 1.26a7.18 7.18 0 01-2.17-.88c-.49-.27-1.06-.57-1.7-.87a33.39 33.39 0 002.47-9.26c.68 0 1.31.07 1.85.06a8 8 0 012.33.29c.25 1.33.79 2.24 1.47 2.27 1 0 1.92-1.85 2-4.24s-.59-4.38-1.6-4.43c-.68 0-1.31.81-1.69 2.1a7.42 7.42 0 01-2.35 0c-.53-.06-1.15-.1-1.83-.12a33.59 33.59 0 00-1.16-8.52c.63-.2 1.22-.41 1.71-.61a7.74 7.74 0 012.28-.59c.71 1.14 1.55 1.79 2.2 1.57 1-.32 1.1-2.43.33-4.7s-2.16-3.85-3.12-3.53c-.64.22-.91 1.24-.8 2.58a7.51 7.51 0 01-2.16.91c-.51.15-1.1.33-1.74.56-.28-.7-.58-1.38-.91-2.05l2-1.14a.91.91 0 00.35-1.24l-.55-1a.9.9 0 00-1.24-.35l-2 1.11a33.73 33.73 0 00-2.54-3.63c.51-.45 1-.87 1.34-1.25a7.25 7.25 0 011.86-1.44c1.1.76 2.13 1 2.63.56.75-.67 0-2.66-1.55-4.44s-3.43-2.58-4.18-1.91zm-1 21a26.28 26.28 0 11-33.32-16.47 26.31 26.31 0 0133.29 16.44z"/><path id="Tracé_881" data-name="Tracé 881" class="cls-4" d="M357.6 530.53c-.38.34-.26 1.15.23 2.05a5.88 5.88 0 01-1.24 1.3c-.33.26-.69.58-1.07.93a25.18 25.18 0 00-5.26-3.92c.25-.48.46-.93.63-1.32a5.74 5.74 0 01.91-1.55c1 .23 1.81.12 2-.34.34-.69-.72-1.91-2.36-2.72s-3.26-.92-3.6-.23c-.23.47.17 1.17 1 1.83a5.62 5.62 0 01-.67 1.67c-.22.37-.45.82-.68 1.31a25.51 25.51 0 00-7.08-1.8c0-.56.06-1.08 0-1.52a6 6 0 01.23-1.78c1-.19 1.71-.6 1.73-1.12 0-.77-1.41-1.47-3.24-1.56s-3.35.45-3.39 1.22c0 .51.62 1 1.61 1.29a5.72 5.72 0 010 1.8c-.05.44-.08 1-.1 1.54a25.14 25.14 0 00-6.45.94c-.17-.56-.35-1.07-.53-1.5a5.5 5.5 0 01-.44-1.74c.86-.55 1.36-1.19 1.2-1.68-.25-.73-1.86-.84-3.6-.25s-2.94 1.65-2.7 2.38c.17.49.95.7 2 .61a6.16 6.16 0 01.7 1.65c.12.45.29 1 .5 1.55a25 25 0 00-6.23 3.71c-.41-.47-.8-.9-1.14-1.23a5.64 5.64 0 01-1.1-1.42c.58-.85.78-1.63.43-2-.52-.57-2 0-3.4 1.19s-2.05 2.69-1.53 3.26c.34.39 1.15.27 2.05-.22a5.88 5.88 0 011.3 1.24c.3.38.69.82 1.13 1.28a25.67 25.67 0 00-3.86 5.18c-.58-.3-1.12-.56-1.59-.76a5.69 5.69 0 01-1.54-.91c.22-1 .12-1.81-.35-2-.68-.34-1.9.72-2.72 2.36s-.91 3.25-.22 3.6c.46.22 1.17-.18 1.82-1a5.65 5.65 0 011.67.68c.44.25 1 .52 1.59.8a25.38 25.38 0 00-1.8 7c-.67 0-1.29-.08-1.8-.08a5.65 5.65 0 01-1.78-.22c-.19-1-.6-1.71-1.12-1.73-.77 0-1.47 1.41-1.57 3.24s.46 3.35 1.23 3.39c.51 0 1-.62 1.29-1.61a5.72 5.72 0 011.8 0c.51.06 1.13.09 1.81.11a25 25 0 00.89 6.37c-.65.2-1.24.4-1.72.6a5.88 5.88 0 01-1.74.45c-.55-.87-1.19-1.37-1.68-1.2-.73.24-.85 1.85-.26 3.59s1.66 3 2.38 2.7c.49-.17.71-1 .61-2a5.64 5.64 0 011.66-.7c.5-.14 1.1-.33 1.73-.57a25.46 25.46 0 003.63 6.21c-.52.44-1 .86-1.33 1.22a6 6 0 01-1.42 1.1c-.85-.58-1.64-.78-2-.43-.57.52 0 2 1.19 3.4s2.69 2 3.26 1.53c.38-.34.27-1.15-.23-2a6.16 6.16 0 011.25-1.3c.4-.32.86-.73 1.35-1.2A25.3 25.3 0 00325 575c-.31.59-.58 1.14-.78 1.6a5.53 5.53 0 01-.92 1.55c-1-.22-1.81-.12-2 .35-.34.68.72 1.9 2.36 2.72s3.26.91 3.6.22c.23-.47-.17-1.17-1-1.83a5.57 5.57 0 01.67-1.66c.25-.44.52-1 .8-1.57a25.77 25.77 0 005.7 1.69c0 1 .45 2.13 1.23.88v1a6 6 0 01-.22 1.79c-1 .18-1.71.6-1.74 1.12 0 .77 1.42 1.46 3.25 1.56s3.35-.45 3.39-1.22c0-.52-.63-1-1.61-1.29a5.73 5.73 0 010-1.8c.05-.48.09-1.05.1-1.67a25.92 25.92 0 006.44-.84c.18.57.36 1.1.54 1.53a5.5 5.5 0 01.44 1.74c-.87.54-1.36 1.19-1.2 1.68.25.73 1.86.84 3.6.25s2.94-1.65 2.7-2.38c-.17-.49-.95-.7-2-.61a6.09 6.09 0 01-.7-1.66c-.12-.44-.28-1-.49-1.51a25.34 25.34 0 006.32-3.64c.37.43.73.82 1 1.13a5.64 5.64 0 011.1 1.42c-.58.85-.78 1.63-.43 2 .52.57 2 0 3.4-1.2s2.05-2.68 1.53-3.26c-.34-.38-1.15-.26-2.05.23a6.12 6.12 0 01-1.3-1.24 15.09 15.09 0 00-1-1.14 26 26 0 004-5.19c.48.25.94.46 1.33.63a5.74 5.74 0 011.55.91c-.23 1-.12 1.81.34 2 .69.34 1.91-.72 2.72-2.36s.92-3.26.23-3.6c-.47-.23-1.17.17-1.83 1a5.57 5.57 0 01-1.66-.67c-.37-.21-.81-.44-1.3-.67a25.58 25.58 0 001.89-7.08c.52 0 1 .05 1.41.05a5.68 5.68 0 011.79.22c.19 1 .6 1.71 1.12 1.73.77 0 1.47-1.41 1.56-3.24s-.45-3.35-1.22-3.39c-.52 0-1 .62-1.29 1.61a5.72 5.72 0 01-1.8 0c-.41 0-.89-.08-1.4-.1a25.56 25.56 0 00-.9-6.51c.49-.16.94-.32 1.32-.47a5.8 5.8 0 011.74-.45c.54.87 1.19 1.36 1.68 1.2.73-.25.84-1.85.25-3.59s-1.65-3-2.38-2.7c-.49.16-.7 1-.61 2a5.8 5.8 0 01-1.66.7c-.39.11-.84.25-1.32.42-.22-.53-.45-1-.7-1.57l1.55-.86a.71.71 0 00.27-1l-.42-.75a.71.71 0 00-1-.27l-1.52.85a25.67 25.67 0 00-1.95-2.78c.39-.34.74-.67 1-1A5.64 5.64 0 01360 535c.85.58 1.63.78 2 .44.57-.52 0-2-1.2-3.4s-2.62-2.04-3.2-1.51zm-.78 16A20.1 20.1 0 11331.33 534a20.13 20.13 0 0125.49 12.57z"/><path id="Tracé_882" data-name="Tracé 882" class="cls-5" d="M277 386c-.38.35-.27 1.15.23 2.05a6 6 0 01-1.25 1.31c-.32.25-.68.57-1.06.93a25.86 25.86 0 00-5.26-3.93q.38-.72.63-1.32a5.69 5.69 0 01.91-1.54c1 .22 1.81.12 2-.35.34-.69-.72-1.9-2.36-2.72s-3.26-.91-3.6-.22c-.23.46.17 1.17 1 1.82a5.62 5.62 0 01-.67 1.67c-.22.38-.45.82-.68 1.31a25.86 25.86 0 00-7.08-1.8c0-.56.06-1.07.05-1.51a6 6 0 01.23-1.79c1-.18 1.71-.6 1.73-1.12 0-.76-1.41-1.46-3.24-1.56s-3.35.46-3.39 1.22c0 .52.62 1 1.61 1.29a6 6 0 010 1.8c-.05.45-.09 1-.1 1.54a25.6 25.6 0 00-6.45.95c-.17-.56-.36-1.08-.53-1.5a5.8 5.8 0 01-.45-1.74c.87-.55 1.37-1.19 1.2-1.68-.24-.73-1.85-.85-3.59-.26s-2.95 1.66-2.7 2.39c.17.49.95.7 2 .61a5.47 5.47 0 01.7 1.65c.13.45.3 1 .5 1.54a25.4 25.4 0 00-6.23 3.72c-.4-.47-.8-.9-1.14-1.23a6 6 0 01-1.1-1.42c.58-.85.78-1.64.44-2-.52-.57-2 0-3.4 1.19s-2.05 2.69-1.54 3.26c.35.38 1.15.27 2.06-.22a5.88 5.88 0 011.3 1.24c.3.38.69.82 1.13 1.28A25.4 25.4 0 00235 396c-.58-.31-1.13-.57-1.59-.77a5.9 5.9 0 01-1.55-.91c.23-1 .13-1.81-.34-2-.69-.34-1.91.72-2.72 2.36s-.91 3.26-.22 3.6c.46.23 1.16-.17 1.82-1a5.91 5.91 0 011.67.67 15.6 15.6 0 001.59.8 25.19 25.19 0 00-1.8 7c-.67-.06-1.29-.08-1.8-.08a6 6 0 01-1.79-.22c-.19-1-.6-1.71-1.12-1.74-.77 0-1.47 1.42-1.56 3.25s.45 3.35 1.22 3.39c.52 0 1-.63 1.29-1.61a5.73 5.73 0 011.8 0c.52.05 1.14.09 1.81.1a25.31 25.31 0 00.9 6.37c-.65.2-1.24.41-1.73.6a5.52 5.52 0 01-1.74.45c-.54-.87-1.19-1.36-1.68-1.2-.73.25-.84 1.86-.25 3.6s1.65 2.94 2.38 2.7c.49-.17.7-.95.61-2a5.86 5.86 0 011.65-.7 18.26 18.26 0 001.74-.57 25 25 0 003.62 6.22c-.51.43-1 .85-1.33 1.22a5.64 5.64 0 01-1.42 1.1c-.85-.58-1.63-.78-2-.43-.57.51 0 2 1.19 3.4s2.69 2.05 3.26 1.53c.39-.35.27-1.15-.22-2.05a5.47 5.47 0 011.24-1.3c.4-.32.87-.73 1.35-1.2a25.86 25.86 0 005.12 3.9c-.31.58-.57 1.13-.77 1.6a5.9 5.9 0 01-.91 1.55c-1-.23-1.81-.13-2 .34-.34.69.72 1.91 2.36 2.72s3.25.91 3.6.22c.23-.46-.17-1.17-1-1.82a5.62 5.62 0 01.67-1.67c.25-.44.52-1 .8-1.57a25.77 25.77 0 005.7 1.69c0 1 .44 2.14 1.23.89v1a6 6 0 01-.22 1.78c-1 .19-1.71.6-1.74 1.12 0 .77 1.42 1.47 3.25 1.56s3.35-.45 3.39-1.22c0-.52-.63-1-1.61-1.29a5.72 5.72 0 010-1.8c.05-.48.09-1.05.1-1.67a25.46 25.46 0 006.44-.84c.18.57.36 1.1.54 1.53a5.5 5.5 0 01.44 1.74c-.86.55-1.36 1.19-1.2 1.68.25.73 1.86.84 3.6.25s2.94-1.65 2.7-2.38c-.17-.49-.95-.7-2-.61a6.16 6.16 0 01-.7-1.65 15.42 15.42 0 00-.49-1.52 25.31 25.31 0 006.32-3.63c.37.42.73.81 1 1.12a5.64 5.64 0 011.1 1.4c-.58.85-.78 1.64-.43 2 .52.57 2 0 3.4-1.19s2-2.69 1.53-3.26c-.34-.39-1.15-.27-2.05.22a5.88 5.88 0 01-1.3-1.24c-.27-.34-.61-.73-1-1.14a25.75 25.75 0 004-5.19c.48.25.94.46 1.33.63a5.74 5.74 0 011.55.91c-.23 1-.12 1.81.34 2 .69.34 1.91-.72 2.72-2.36s.92-3.25.23-3.6c-.47-.23-1.17.18-1.83 1a5.46 5.46 0 01-1.66-.67 21.8 21.8 0 00-1.3-.67 25.93 25.93 0 001.89-7.08c.52 0 1 .05 1.41.05a5.68 5.68 0 011.79.22c.18 1 .6 1.71 1.12 1.74.77 0 1.47-1.42 1.56-3.25s-.45-3.35-1.22-3.39c-.52 0-1 .63-1.29 1.61a5.73 5.73 0 01-1.8 0c-.41 0-.89-.07-1.4-.1a25.56 25.56 0 00-.9-6.51c.49-.16.94-.32 1.32-.47a5.8 5.8 0 011.74-.45c.54.87 1.19 1.37 1.68 1.2.73-.24.84-1.85.25-3.59s-1.65-3-2.38-2.7c-.49.17-.7 1-.61 2a5.58 5.58 0 01-1.65.7c-.4.11-.85.26-1.33.43-.22-.54-.45-1.06-.7-1.57l1.55-.87a.71.71 0 00.27-.95l-.42-.75a.71.71 0 00-1-.27l-1.52.86a26.81 26.81 0 00-2-2.79c.39-.34.74-.66 1-1a5.64 5.64 0 011.42-1.1c.85.58 1.63.78 2 .43.57-.52 0-2-1.19-3.4s-2.58-1.95-3.12-1.44zm-.79 16a20.1 20.1 0 11-25.48-12.59A20.12 20.12 0 01276.18 402z"/></g></g></g></svg>