<?xml version="1.0" encoding="utf-8"?>
<!-- Svg Vector Icons : http://www.onlinewebfonts.com/icon -->
<!DOCTYPE svg PUBLIC "-//W3C//DTD SVG 1.1//EN" "http://www.w3.org/Graphics/SVG/1.1/DTD/svg11.dtd">
<svg version="1.1" xmlns="http://www.w3.org/2000/svg" xmlns:xlink="http://www.w3.org/1999/xlink" x="0px" y="0px" viewBox="0 0 1000 1000" enable-background="new 0 0 1000 1000" xml:space="preserve">
<metadata> Svg Vector Icons : http://www.onlinewebfonts.com/icon </metadata>
<g><g transform="translate(0.000000,512.000000) scale(0.100000,-0.100000)"><path d="M4689.7,5016.6c-759.2-65.2-1353.5-232-1968.9-554.1c-893.4-465.9-1652.6-1236.6-2105-2137.6C264.9,1625.1,100,923.4,100,120.1c0-801.4,164.9-1506.9,513.8-2202.8c400.7-795.6,1071.7-1522.2,1842.4-1991.9c1608.5-981.6,3671.4-937.5,5249.1,111.2C9743.3-2608,10471.8,18.5,9423.1,2229c-245.4,511.9-540.6,927.9-964.3,1353.5c-784.1,784.1-1704.4,1240.4-2810.5,1397.6C5448.9,5008.9,4854.5,5031.9,4689.7,5016.6z M4676.2,3674.5c329.8-72.8,623.1-287.6,751.5-552.1c97.8-199.4,126.5-333.6,138-634.6c19.2-504.2-44.1-822.5-255-1251.9c-159.1-324-180.2-385.4-180.2-525.3c0-210.9,109.3-337.4,417.9-488.9c95.9-47.9,176.4-90.1,176.4-95.9c0-9.6-895.3-1556.7-972-1679.4l-44.1-70.9H3196.2c-1416.8,0-1514.6,1.9-1554.8,34.5c-40.3,32.6-40.3,40.3-34.5,483.1c5.7,446.7,5.7,450.5,57.5,548.3C1775.6-347.6,2021-203.9,2628.7,7c709.4,245.4,897.2,358.5,968.2,580.9c44.1,140,15.3,256.9-151.5,603.9c-245.4,510-278,649.9-279.9,1171.4c0,299.1,7.7,398.8,34.5,498.5c113.1,416,406.4,703.6,824.4,807.1C4200.8,3712.9,4496,3714.8,4676.2,3674.5z M6227.2,499.7c15.4-13.4,341.3-567.5,724.7-1232.7c383.4-663.3,803.3-1391.8,933.6-1616.2c128.5-226.2,235.8-425.6,235.8-444.8c0-21.1-19.2-49.8-42.2-65.2c-38.3-26.8-251.1-30.7-1903.7-30.7c-1652.6,0-1865.4,3.8-1903.7,30.7c-23,15.4-42.2,46-42.2,65.2c0,44.1,1848.1,3257.3,1894.1,3293.7c17.3,11.5,40.3,23,51.8,23C6187,522.7,6210,511.2,6227.2,499.7z"/><path d="M6077.7-338.1c-32.6-19.2-76.7-59.4-99.7-88.2c-109.3-138-163-446.7-120.8-690.2c26.8-153.4,138-492.7,209-642.2c46-93.9,59.5-105.4,109.3-105.4c49.8,0,63.2,13.4,99.7,86.3c71,145.7,195.6,542.5,220.5,697.9c49.8,322.1-55.6,657.6-237.7,751.5C6188.9-292.1,6148.6-294,6077.7-338.1z"/><path d="M6047-2038.6c-116.9-63.3-151.4-264.6-61.3-370c53.7-65.2,161-103.5,235.8-84.4c124.6,30.7,193.6,122.7,193.6,256.9c0,67.1-11.5,92-74.8,153.4c-63.3,65.2-86.3,74.8-157.2,74.8C6137.1-2009.8,6075.8-2021.3,6047-2038.6z"/></g></g>
</svg>